<svg width="638" height="362" viewBox="0 0 638 362" fill="none" xmlns="http://www.w3.org/2000/svg"><path d="M80 17.025C80 7.622 87.623 0 97.025 0h444.45c9.402 0 17.025 7.622 17.025 17.025V344.09c0 9.403-7.623 17.025-17.025 17.025H97.025c-9.403 0-17.025-7.622-17.025-17.025V17.025Z" fill="url(#a)"/><path fill-rule="evenodd" clip-rule="evenodd" d="M541.225 1.792H96.775c-8.413 0-15.233 6.82-15.233 15.233V344.09c0 8.413 6.82 15.233 15.233 15.233h444.45c8.413 0 15.233-6.82 15.233-15.233V17.025c0-8.413-6.82-15.233-15.233-15.233ZM96.775 0C87.372 0 79.75 7.622 79.75 17.025V344.09c0 9.403 7.623 17.025 17.025 17.025h444.45c9.402 0 17.025-7.622 17.025-17.025V17.025C558.25 7.622 550.627 0 541.225 0H96.775Z" fill="url(#b)"/><path d="M364.699 281.816a6.724 6.724 0 0 1 6.726-6.723h19.336a6.724 6.724 0 0 1 6.725 6.723v19.331a6.724 6.724 0 0 1-6.725 6.724h-19.336a6.725 6.725 0 0 1-6.726-6.724v-19.331Z" fill="#51CB9C"/><path d="m376.263 297.786-5.68-6.318 5.68-6.289h2.711l-5.704 6.289 5.704 6.318h-2.711Zm6.923-12.607h2.71l5.704 6.289-5.704 6.318h-2.71l5.704-6.318-5.704-6.289Z" fill="#fff"/><path d="M258.066 103.499a6.725 6.725 0 0 1 6.726-6.724h19.336a6.724 6.724 0 0 1 6.725 6.724v19.331a6.724 6.724 0 0 1-6.725 6.723h-19.336a6.725 6.725 0 0 1-6.726-6.723v-19.331Z" fill="#1ABCFE"/><path fill-rule="evenodd" clip-rule="evenodd" d="m277.349 109.139-2.662-4.073H266.7v17.65h15.973v-13.577h-5.324Zm3.223 2.102h-4.36l-2.663-4.073h-4.747v13.447h11.77v-9.374Z" fill="#fff"/><path d="M425.631 140.237a6.724 6.724 0 0 1 6.725-6.723h19.336a6.724 6.724 0 0 1 6.726 6.723v19.331a6.725 6.725 0 0 1-6.726 6.724h-19.336a6.725 6.725 0 0 1-6.725-6.724v-19.331Z" fill="#FFC04A"/><path d="M434.039 149.055c1.36-.254 2.04-.953 2.04-2.1 0-.507-.066-1.373-.2-2.599-.133-1.307-.2-2.253-.2-2.84 0-.96.267-1.693.8-2.2.547-.506 1.274-.759 2.18-.759h1.161v1.579h-.821c-.52 0-.906.12-1.16.36-.253.227-.38.607-.38 1.14 0 .387.027.867.08 1.44.054.56.087.94.1 1.14.134 1.279.2 2.212.2 2.799 0 .707-.18 1.3-.54 1.78-.346.466-.886.78-1.62.94v.04c.734.16 1.274.479 1.62.959.36.48.54 1.073.54 1.78 0 .587-.066 1.52-.2 2.8-.013.199-.046.586-.1 1.159-.053.56-.08 1.033-.08 1.42 0 .533.127.913.38 1.14.254.24.64.36 1.16.36h.821v1.579h-1.161c-.906 0-1.633-.253-2.18-.759-.533-.507-.8-1.24-.8-2.2 0-.587.067-1.533.2-2.839.134-1.227.2-2.093.2-2.6 0-1.146-.68-1.846-2.04-2.1v-1.419Zm16.216 1.419c-1.36.254-2.04.954-2.04 2.1 0 .507.067 1.373.2 2.6.133 1.306.2 2.252.2 2.839 0 .96-.273 1.693-.82 2.2-.533.506-1.254.759-2.16.759h-1.16v-1.579h.82c.52 0 .906-.12 1.16-.36.253-.227.38-.607.38-1.14 0-.387-.027-.86-.08-1.42-.054-.573-.087-.96-.1-1.159-.134-1.28-.2-2.213-.2-2.8 0-.707.173-1.3.52-1.78.36-.48.907-.799 1.64-.959v-.04c-.733-.16-1.28-.474-1.64-.94-.347-.48-.52-1.073-.52-1.78 0-.586.066-1.52.2-2.799.013-.2.046-.58.1-1.14.053-.573.08-1.053.08-1.44 0-.533-.127-.913-.38-1.14-.254-.24-.64-.36-1.16-.36h-.82v-1.579h1.16c.906 0 1.627.253 2.16.759.547.507.82 1.24.82 2.2 0 .587-.067 1.533-.2 2.84-.133 1.226-.2 2.092-.2 2.599 0 1.147.68 1.846 2.04 2.1v1.419Z" fill="#1C1E53"/><path d="M0 101.256c0-5.939 4.814-10.753 10.753-10.753h172.045c5.938 0 10.753 4.814 10.753 10.753v111.112c0 5.939-4.815 10.753-10.753 10.753H10.753C4.814 223.121 0 218.307 0 212.368V101.256Z" fill="url(#c)"/><path fill-rule="evenodd" clip-rule="evenodd" d="M182.798 92.295H10.753a8.96 8.96 0 0 0-8.96 8.961v111.112a8.96 8.96 0 0 0 8.96 8.961h172.045a8.96 8.96 0 0 0 8.96-8.961V101.256a8.96 8.96 0 0 0-8.96-8.96ZM10.753 90.503C4.814 90.503 0 95.317 0 101.256v111.112c0 5.939 4.814 10.753 10.753 10.753h172.045c5.938 0 10.753-4.814 10.753-10.753V101.256c0-5.939-4.815-10.753-10.753-10.753H10.753Z" fill="url(#d)"/><path d="M21.506 125.45a5.376 5.376 0 0 1 5.376-5.377h50.18a5.376 5.376 0 0 1 5.376 5.377v57.348a5.376 5.376 0 0 1-5.376 5.376h-50.18a5.376 5.376 0 0 1-5.376-5.376V125.45Z" fill="#fff" fill-opacity=".17"/><path d="M94.086 125.002a4.929 4.929 0 0 1 4.928-4.929h63.621a4.928 4.928 0 0 1 0 9.857h-63.62a4.929 4.929 0 0 1-4.93-4.928Z" fill="#fff" fill-opacity=".6"/><path d="M94.086 143.819a4.928 4.928 0 0 1 4.928-4.928h63.621a4.928 4.928 0 1 1 0 9.856h-63.62a4.928 4.928 0 0 1-4.93-4.928Z" fill="#fff" fill-opacity=".26"/><path d="M94.086 175.181c0-9.156 7.422-16.577 16.577-16.577h.896c9.156 0 16.577 7.421 16.577 16.577 0 9.155-7.421 16.577-16.577 16.577h-.896c-9.155 0-16.577-7.422-16.577-16.577Z" fill="#767799"/><path d="M90.504 33.603c0-10.145 8.224-18.37 18.369-18.37H521.96c10.145 0 18.37 8.225 18.37 18.37 0 10.145-8.225 18.37-18.37 18.37H108.873c-10.145 0-18.37-8.225-18.37-18.37Z" fill="url(#e)"/><path d="M465.955 199.823c0-5.938 4.814-10.753 10.753-10.753h150.539c5.939 0 10.753 4.815 10.753 10.753v111.112c0 5.939-4.814 10.753-10.753 10.753H476.708c-5.939 0-10.753-4.814-10.753-10.753V199.823Z" fill="url(#f)"/><path fill-rule="evenodd" clip-rule="evenodd" d="M627.247 190.862H476.708a8.961 8.961 0 0 0-8.961 8.961v111.112a8.961 8.961 0 0 0 8.961 8.961h150.539a8.961 8.961 0 0 0 8.961-8.961V199.823a8.961 8.961 0 0 0-8.961-8.961Zm-150.539-1.792c-5.939 0-10.753 4.815-10.753 10.753v111.112c0 5.939 4.814 10.753 10.753 10.753h150.539c5.939 0 10.753-4.814 10.753-10.753V199.823c0-5.938-4.814-10.753-10.753-10.753H476.708Z" fill="url(#g)"/><path d="M481.885 210.575a3.584 3.584 0 0 1 3.584-3.584h133.016a3.585 3.585 0 1 1 0 7.169H485.469a3.584 3.584 0 0 1-3.584-3.585Z" fill="url(#h)"/><path d="M481.885 228.497a3.584 3.584 0 0 1 3.584-3.584h43.011a3.585 3.585 0 1 1 0 7.169h-43.011a3.584 3.584 0 0 1-3.584-3.585Z" fill="url(#i)"/><path d="M538.437 228.497a3.584 3.584 0 0 1 3.584-3.584h16.726a3.585 3.585 0 1 1 0 7.169h-16.726a3.584 3.584 0 0 1-3.584-3.585Z" fill="url(#j)"/><path d="M481.885 300.183a3.583 3.583 0 0 1 3.584-3.584h43.011a3.584 3.584 0 1 1 0 7.168h-43.011a3.584 3.584 0 0 1-3.584-3.584Z" fill="url(#k)"/><path d="M538.437 300.183a3.583 3.583 0 0 1 3.584-3.584h16.726a3.584 3.584 0 1 1 0 7.168h-16.726a3.584 3.584 0 0 1-3.584-3.584Z" fill="url(#l)"/><path d="M510.56 264.34a3.584 3.584 0 0 1 3.584-3.584h11.947a3.585 3.585 0 1 1 0 7.168h-11.947a3.583 3.583 0 0 1-3.584-3.584Z" fill="url(#m)"/><path d="M536.845 264.34a3.584 3.584 0 0 1 3.584-3.584h50.976a3.585 3.585 0 1 1 0 7.168h-50.976a3.583 3.583 0 0 1-3.584-3.584Z" fill="url(#n)"/><path d="M481.885 264.34a3.584 3.584 0 0 1 3.584-3.584h16.727a3.584 3.584 0 0 1 0 7.168h-16.727a3.583 3.583 0 0 1-3.584-3.584Z" fill="url(#o)"/><path d="M481.885 246.418a3.584 3.584 0 0 1 3.584-3.584h58.145a3.584 3.584 0 0 1 0 7.169h-58.145a3.584 3.584 0 0 1-3.584-3.585Z" fill="url(#p)"/><path d="M552.774 246.418a3.585 3.585 0 0 1 3.585-3.584h27.081a3.584 3.584 0 0 1 0 7.169h-27.081a3.585 3.585 0 0 1-3.585-3.585Z" fill="url(#q)"/><path d="M481.885 282.261a3.583 3.583 0 0 1 3.584-3.584h58.145a3.584 3.584 0 1 1 0 7.168h-58.145a3.583 3.583 0 0 1-3.584-3.584Z" fill="url(#r)"/><path d="M123.343 33.804a6.145 6.145 0 0 1-6.146 6.145 6.145 6.145 0 1 1 0-12.289 6.145 6.145 0 0 1 6.146 6.144Z" fill="#FED280"/><path d="M144.855 33.804a6.145 6.145 0 0 1-6.146 6.145 6.146 6.146 0 0 1-6.147-6.145 6.146 6.146 0 0 1 6.147-6.144 6.145 6.145 0 0 1 6.146 6.144Z" fill="#8CFEE3" fill-opacity=".9"/><path d="M166.368 33.804a6.145 6.145 0 0 1-6.146 6.145 6.145 6.145 0 1 1 6.146-6.145Z" fill="#FF8DA9" fill-opacity=".9"/><path d="M48.195 152.971c-1.69-2.204-5.056-2.057-6.548.285l-11.85 18.601c-1.695 2.663.217 6.149 3.375 6.149H70.91c3.266 0 5.156-3.703 3.24-6.347l-6.692-9.234a4 4 0 0 0-6.175-.369l-.125.135a4 4 0 0 1-6.111-.282l-6.852-8.938Z" fill="#fff"/><path d="M71.479 140.027a5.825 5.825 0 1 1-11.65-.001 5.825 5.825 0 0 1 11.65.001Z" fill="#C4C5DC"/><path fill-rule="evenodd" clip-rule="evenodd" d="M192.43 153.228a1.12 1.12 0 0 1 1.12-1.121h133.53v26.379a1.12 1.12 0 0 1-2.24 0v-24.138H193.55a1.12 1.12 0 0 1-1.12-1.12Z" fill="url(#s)"/><path fill-rule="evenodd" clip-rule="evenodd" d="M467.075 255.379a1.12 1.12 0 0 1-1.12 1.12H325.256v-25.378a1.12 1.12 0 1 1 2.241 0v23.138h138.458c.619 0 1.12.501 1.12 1.12Z" fill="url(#t)"/><g filter="url(#u)"><path fill-rule="evenodd" clip-rule="evenodd" d="M324.056 199.554c-.006.217.033.321.231.321h4.773c.864.064 1.637.28 2.291.7.454.291.786.638 1.036 1.022.443.681.694 1.664.83 2.458.058.343.085.664.023.812a.236.236 0 0 1-.133.14c-.328.125-.675-.303-.86-.508-.88-.975-2.159-1.378-3.668-1.454h-4.363c-.156.026-.212.135-.196.304v1.163c-.009.387-.215.519-.623.388l-3.757-2.792-.37-.274-.094-.07c-.302-.258-.178-.492.093-.694l.287-.214 3.6-2.683c.439-.328.9-.415.9.291v1.09Zm4.18 11.873c.006-.216-.033-.32-.231-.32h-4.773c-.864-.064-1.637-.28-2.291-.7a3.404 3.404 0 0 1-1.04-1.029c-.453-.7-.748-1.839-.857-2.657-.034-.261-.042-.488.008-.607a.242.242 0 0 1 .133-.14c.328-.124.675.304.86.508.88.975 2.16 1.379 3.668 1.454h4.363c.156-.025.212-.135.196-.303v-1.164c.009-.387.215-.518.623-.388l3.757 2.792.37.275.094.07c.302.257.178.491-.093.694l-.287.213-3.599 2.684c-.44.327-.9.415-.9-.291l-.001-1.091Z" fill="#88F1DB"/></g><circle cx="326" cy="205" r="19" stroke="#fff" stroke-width="2"/><path d="M248.211 153.227a8.961 8.961 0 1 1-17.92 0 8.961 8.961 0 0 1 17.92 0Z" fill="#383A68"/><path fill-rule="evenodd" clip-rule="evenodd" d="M239.251 160.396a7.169 7.169 0 1 0-.001-14.337 7.169 7.169 0 0 0 .001 14.337Zm0 1.792a8.96 8.96 0 0 0 8.96-8.961 8.96 8.96 0 0 0-8.96-8.96 8.961 8.961 0 0 0 0 17.921Z" fill="#63648A"/><path d="M443.552 255.38a8.96 8.96 0 1 1-17.921-.001 8.96 8.96 0 0 1 17.921.001Z" fill="#383A68"/><path fill-rule="evenodd" clip-rule="evenodd" d="M434.592 262.548a7.169 7.169 0 1 0-.001-14.337 7.169 7.169 0 0 0 .001 14.337Zm0 1.792a8.96 8.96 0 1 0-.001-17.921 8.96 8.96 0 0 0 .001 17.921Z" fill="#63648A"/><path d="M134.41 165.327a6.724 6.724 0 0 1 6.726-6.723h19.336a6.724 6.724 0 0 1 6.725 6.723v19.331a6.725 6.725 0 0 1-6.725 6.724h-19.336a6.725 6.725 0 0 1-6.726-6.724v-19.331Z" fill="#767799"/><path fill-rule="evenodd" clip-rule="evenodd" d="M154.065 184.393h-6.058v-2.521h6.058v2.521Zm-11.669-16.964h16.814v4.056h-2.522v-1.535h-11.769v1.535h-2.523v-4.056Z" fill="#fff"/><path fill-rule="evenodd" clip-rule="evenodd" d="m149.699 183.274.155-14.443 2.522.027-.156 14.443-2.521-.027Z" fill="#fff"/><defs><linearGradient id="a" x1="319.25" y1="0" x2="442.61" y2="524.825" gradientUnits="userSpaceOnUse"><stop stop-color="#fff" stop-opacity=".16"/><stop offset="1" stop-color="#C4C4C4" stop-opacity="0"/></linearGradient><linearGradient id="b" x1="319" y1="0" x2="657.888" y2="244.481" gradientUnits="userSpaceOnUse"><stop stop-color="#fff" stop-opacity=".17"/><stop offset="1" stop-opacity="0"/></linearGradient><linearGradient id="c" x1="41.827" y1="126.113" x2="278.936" y2="434.827" gradientUnits="userSpaceOnUse"><stop stop-color="#40416E"/><stop offset="1" stop-color="#5A5B8B"/></linearGradient><linearGradient id="d" x1="96.775" y1="90.503" x2="179.171" y2="427.829" gradientUnits="userSpaceOnUse"><stop stop-color="#fff" stop-opacity=".17"/><stop offset="1" stop-opacity="0"/></linearGradient><linearGradient id="e" x1="315.417" y1="15.233" x2="383.39" y2="224.788" gradientUnits="userSpaceOnUse"><stop stop-color="#fff" stop-opacity=".15"/><stop offset="1" stop-color="#C4C4C4" stop-opacity="0"/></linearGradient><linearGradient id="f" x1="797.652" y1="535.76" x2="326.286" y2="107.827" gradientUnits="userSpaceOnUse"><stop stop-color="#40416E"/><stop offset="1" stop-color="#5A5B8B"/></linearGradient><linearGradient id="g" x1="551.978" y1="189.07" x2="643.306" y2="521.426" gradientUnits="userSpaceOnUse"><stop stop-color="#fff" stop-opacity=".17"/><stop offset="1" stop-opacity="0"/></linearGradient><linearGradient id="h" x1="551.977" y1="206.991" x2="560.791" y2="250.392" gradientUnits="userSpaceOnUse"><stop stop-color="#fff" stop-opacity=".56"/><stop offset="1" stop-color="#C4C4C4" stop-opacity="0"/></linearGradient><linearGradient id="i" x1="506.975" y1="224.913" x2="526.371" y2="259.099" gradientUnits="userSpaceOnUse"><stop stop-color="#F9C746" stop-opacity=".52"/><stop offset="1" stop-color="#C4C4C4" stop-opacity="0"/></linearGradient><linearGradient id="j" x1="550.384" y1="224.913" x2="572.637" y2="243.59" gradientUnits="userSpaceOnUse"><stop stop-color="#84EBE5" stop-opacity=".62"/><stop offset="1" stop-color="#C4C4C4" stop-opacity="0"/></linearGradient><linearGradient id="k" x1="506.975" y1="296.599" x2="526.371" y2="330.785" gradientUnits="userSpaceOnUse"><stop stop-color="#fff" stop-opacity=".56"/><stop offset="1" stop-color="#C4C4C4" stop-opacity="0"/></linearGradient><linearGradient id="l" x1="550.384" y1="296.599" x2="572.637" y2="315.276" gradientUnits="userSpaceOnUse"><stop stop-color="#F47D9E"/><stop offset="1" stop-color="#C4C4C4" stop-opacity="0"/></linearGradient><linearGradient id="m" x1="520.118" y1="260.756" x2="541.032" y2="274.799" gradientUnits="userSpaceOnUse"><stop stop-color="#F2C87D"/><stop offset="1" stop-color="#C4C4C4" stop-opacity="0"/></linearGradient><linearGradient id="n" x1="565.917" y1="260.756" x2="583.765" y2="297.207" gradientUnits="userSpaceOnUse"><stop stop-color="#fff" stop-opacity=".62"/><stop offset="1" stop-color="#C4C4C4" stop-opacity="0"/></linearGradient><linearGradient id="o" x1="488.257" y1="258.964" x2="524.934" y2="264.143" gradientUnits="userSpaceOnUse"><stop stop-color="#F37D9D"/><stop offset="1" stop-color="#C4C4C4" stop-opacity="0"/></linearGradient><linearGradient id="p" x1="514.541" y1="242.834" x2="531.095" y2="280.809" gradientUnits="userSpaceOnUse"><stop stop-color="#fff" stop-opacity=".58"/><stop offset="1" stop-color="#C4C4C4" stop-opacity="0"/></linearGradient><linearGradient id="q" x1="569.899" y1="242.834" x2="592.114" y2="269.559" gradientUnits="userSpaceOnUse"><stop stop-color="#fff" stop-opacity=".45"/><stop offset="1" stop-color="#C4C4C4" stop-opacity="0"/></linearGradient><linearGradient id="r" x1="514.541" y1="278.677" x2="531.095" y2="316.652" gradientUnits="userSpaceOnUse"><stop stop-color="#70D1E7"/><stop offset="1" stop-color="#C4C4C4" stop-opacity="0"/></linearGradient><linearGradient id="s" x1="314.831" y1="147.041" x2="135.117" y2="201.28" gradientUnits="userSpaceOnUse"><stop stop-color="#767799"/><stop offset="1" stop-color="#767799" stop-opacity="0"/></linearGradient><linearGradient id="t" x1="338.205" y1="261.565" x2="525.789" y2="201.931" gradientUnits="userSpaceOnUse"><stop stop-color="#767799"/><stop offset="1" stop-color="#767799" stop-opacity="0"/></linearGradient><filter id="u" x="305" y="187.927" width="42.292" height="43.128" filterUnits="userSpaceOnUse" color-interpolation-filters="sRGB"><feFlood flood-opacity="0" result="BackgroundImageFix"/><feColorMatrix in="SourceAlpha" values="0 0 0 0 0 0 0 0 0 0 0 0 0 0 0 0 0 0 127 0" result="hardAlpha"/><feOffset dy="4"/><feGaussianBlur stdDeviation="7"/><feComposite in2="hardAlpha" operator="out"/><feColorMatrix values="0 0 0 0 0.533333 0 0 0 0 0.945098 0 0 0 0 0.858824 0 0 0 1 0"/><feBlend in2="BackgroundImageFix" result="effect1_dropShadow_757_682"/><feBlend in="SourceGraphic" in2="effect1_dropShadow_757_682" result="shape"/></filter></defs></svg>